<svg width="28" height="28" viewBox="0 0 28 28" fill="none" xmlns="http://www.w3.org/2000/svg">
<rect width="28" height="28" rx="14" fill="#232323"/>
<path fill-rule="evenodd" clip-rule="evenodd" d="M11.9231 11.5359V14.885C10.264 14.459 9.12969 13.6462 9.12969 11.7803C9.12969 9.40938 11.0225 7.85201 13.8298 7.87526C16.7647 7.87526 18.7851 9.29316 18.934 11.7338H16.0066V11.5359V11.5359C16.0066 10.7583 15.0925 10.1279 13.9649 10.1279C13.9065 10.1279 13.8487 10.1296 13.7915 10.1329C12.745 10.1935 11.9231 10.7985 11.9231 11.5359ZM13.996 18.569C13.8647 18.5762 13.7314 18.5377 13.6215 18.4532L12.3631 17.486C12.0856 17.2728 11.9231 16.9427 11.9231 16.5929V16.0108H8.89575C9.02336 18.5676 11.0863 20.125 14.1275 20.125C17.0624 20.125 19.1041 18.6141 19.1041 16.2432C19.1041 14.1079 17.7969 13.27 16.0066 12.8752L16.0066 16.5928C16.0066 16.9427 15.844 17.2727 15.5666 17.486L14.3081 18.4532C14.2156 18.5243 14.1065 18.5629 13.996 18.569Z" fill="white"/>
</svg>
